<?xml version="1.0" encoding="UTF-8" standalone="no"?>
<!-- Created with Inkscape (http://www.inkscape.org/) -->

<svg
   xmlns:dc="http://purl.org/dc/elements/1.1/"
   xmlns:cc="http://creativecommons.org/ns#"
   xmlns:rdf="http://www.w3.org/1999/02/22-rdf-syntax-ns#"
   xmlns:svg="http://www.w3.org/2000/svg"
   xmlns="http://www.w3.org/2000/svg"
   xmlns:sodipodi="http://sodipodi.sourceforge.net/DTD/sodipodi-0.dtd"
   xmlns:inkscape="http://www.inkscape.org/namespaces/inkscape"
   id="svg3020"
   version="1.1"
   inkscape:version="0.48.4 r9939"
   width="578.10217"
   height="633.599"
   sodipodi:docname="fox.svg"
   inkscape:export-filename="/home/darkfox/fox.png"
   inkscape:export-xdpi="94.371033"
   inkscape:export-ydpi="94.371033">
  <metadata
     id="metadata3026">
    <rdf:RDF>
      <cc:Work
         rdf:about="">
        <dc:format>image/svg+xml</dc:format>
        <dc:type
           rdf:resource="http://purl.org/dc/dcmitype/StillImage" />
        <dc:title></dc:title>
      </cc:Work>
    </rdf:RDF>
  </metadata>
  <defs
     id="defs3024" />
  <sodipodi:namedview
     pagecolor="#050505"
     bordercolor="#666666"
     borderopacity="1"
     objecttolerance="10"
     gridtolerance="10"
     guidetolerance="10"
     inkscape:pageopacity="1"
     inkscape:pageshadow="2"
     inkscape:window-width="1920"
     inkscape:window-height="1064"
     id="namedview3022"
     showgrid="false"
     inkscape:zoom="1.1728031"
     inkscape:cx="20.353087"
     inkscape:cy="321.97484"
     inkscape:window-x="0"
     inkscape:window-y="0"
     inkscape:window-maximized="0"
     inkscape:current-layer="svg3020"
     fit-margin-top="50"
     fit-margin-left="50"
     fit-margin-right="50"
     fit-margin-bottom="50"
     inkscape:showpageshadow="false"
     borderlayer="true" />
  <path
     style="fill:#cccccc;fill-opacity:0.80000001;stroke:none"
     d="M 164.77006,50 C 148.74583,49.9959 77.54279,84.073622 68.17415,240.35954 16.936626,341.74993 90.310716,494.96726 90.310716,494.96726 c 0,0 5.868669,72.64173 43.527784,86.16117 50.99177,11.86878 98.23565,-22.88191 98.23565,-22.88191 0,0 113.36607,-19.10587 212.27249,-145.26652 48.64137,-18.44562 104.29696,-111.96572 76.17363,-174.70742 -3.73002,-5.90582 -50.72679,-41.82285 -171.27886,-10.43474 0,0 -32.70813,-29.14772 -79.30405,-42.33525 0,0 -22.59385,-113.770369 -103.82569,-135.353522 -0.39826,-0.068 -0.82469,-0.148949 -1.34161,-0.149068 z m 4.77017,24.298045 c 87.22446,48.432815 68.04944,160.545975 68.04944,160.545975 0,0 -64.01545,37.59644 -144.5212,2.16149 0,0 15.85933,-147.165815 76.47176,-162.707465 z M 459.99876,239.83779 c 15.31293,-0.13616 29.28647,2.82569 45.83834,10.28568 21.7583,71.80241 -77.96244,142.65785 -77.96244,142.65785 0,0 -73.34909,-21.83259 -78.63325,-98.60832 0,0 44.40136,-53.74527 110.75735,-54.33521 z m -331.9739,113.36603 c 52.53031,2.41772 36.04012,32.97065 34.06198,34.5092 -2.6375,2.4177 -39.337,16.04297 -34.06198,-34.5092 z m 155.85035,69.31651 c 15.16459,-1.033 27.13033,17.96266 27.13033,17.96266 0,0 -24.56838,30.48069 -48.96877,-0.44719 7.43085,-12.38475 14.94543,-17.04592 21.83844,-17.51547 z m -139.4529,84.14876 c 9.93552,-0.27254 20.35145,1.16972 28.17381,7.67698 8.68955,7.31839 10.71141,19.89946 8.64593,30.55889 -10.02289,7.20579 -23.74862,9.77356 -35.32906,4.91925 -5.94375,-3.39646 -10.75093,-8.74926 -13.71423,-14.90679 -4.24257,-8.71965 -2.59781,-19.29405 2.23601,-27.42847 1.92198,-0.25343 3.80595,-0.44982 5.73911,-0.59627 1.39027,-0.0992 2.82907,-0.1846 4.24843,-0.22347 z m -37.1924,25.63965 c 10.56294,13.439 23.28576,22.24339 35.47812,27.95021 24.04456,11.25437 46.13648,10.5838 46.13648,10.5838 -62.78825,4.04084 -81.6146,-38.53401 -81.6146,-38.53401 z"
     id="path3030"
     inkscape:export-filename="/home/darkfox/fox.png"
     inkscape:export-xdpi="7.1836548"
     inkscape:export-ydpi="7.1836548"
     inkscape:connector-curvature="0" />
  <path
     style="fill:#00afd7;fill-opacity:1"
     d="m 147.75,362.875 c -6.07514,0 -11,4.92487 -11,11 0,6.07513 4.92486,11 11,11 6.07513,0 11,-4.92487 11,-11 0,-6.07513 -4.92487,-11 -11,-11 z m 0,5 c 3.31371,0 6,2.68629 6,6 0,3.31371 -2.68629,6 -6,6 -3.31371,0 -6,-2.68629 -6,-6 0,-3.31371 2.68629,-6 6,-6 z"
     id="path3940"
     inkscape:connector-curvature="0" />
  <path
     inkscape:connector-curvature="0"
     id="path3940-5"
     d="m 285.53033,427.77578 c -6.07514,0 -11,4.92487 -11,11 0,6.07513 4.92486,11 11,11 6.07513,0 11,-4.92487 11,-11 0,-6.07513 -4.92487,-11 -11,-11 z m 0,5 c 3.31371,0 6,2.68629 6,6 0,3.31371 -2.68629,6 -6,6 -3.31371,0 -6,-2.68629 -6,-6 0,-3.31371 2.68629,-6 6,-6 z"
     style="fill:#00afd7;fill-opacity:1" />
  <path
     style="opacity:0;fill:#cccccc;fill-opacity:0.8"
     d="m 145.42577,384.53199 c -3.99524,-0.90889 -7.20074,-4.02004 -8.22722,-7.98506 -0.3249,-1.25502 -0.36761,-3.69123 -0.0885,-5.04811 0.61283,-2.97912 3.02225,-6.01567 5.83134,-7.34914 1.90262,-0.90316 2.83093,-1.11742 4.82533,-1.11372 5.11965,0.01 9.27031,3.26639 10.55265,8.28029 1.67777,6.56002 -3.25522,13.11288 -10.08831,13.40105 -1.07837,0.0455 -2.08233,-0.0208 -2.8053,-0.18531 z m 4.21951,-4.90641 c 1.49021,-0.44699 3.23455,-2.09802 3.78599,-3.58346 0.32116,-0.86512 0.43294,-2.27305 0.25632,-3.22846 -0.89073,-4.81841 -6.75882,-6.66121 -10.21282,-3.20721 -1.21761,1.21761 -1.69623,2.41072 -1.69523,4.22596 7e-4,1.28127 0.0758,1.66529 0.51007,2.60701 1.27135,2.75712 4.34596,4.08891 7.35567,3.18616 z"
     id="path4221"
     inkscape:connector-curvature="0" />
  <path
     style="opacity:0;fill:#cccccc;fill-opacity:0.8"
     d="m 145.42577,384.53199 c -3.99524,-0.90889 -7.20074,-4.02004 -8.22722,-7.98506 -0.3249,-1.25502 -0.36761,-3.69123 -0.0885,-5.04811 0.61283,-2.97912 3.02225,-6.01567 5.83134,-7.34914 1.90262,-0.90316 2.83093,-1.11742 4.82533,-1.11372 5.11965,0.01 9.27031,3.26639 10.55265,8.28029 1.67777,6.56002 -3.25522,13.11288 -10.08831,13.40105 -1.07837,0.0455 -2.08233,-0.0208 -2.8053,-0.18531 z m 4.21951,-4.90641 c 1.49021,-0.44699 3.23455,-2.09802 3.78599,-3.58346 0.32116,-0.86512 0.43294,-2.27305 0.25632,-3.22846 -0.89073,-4.81841 -6.75882,-6.66121 -10.21282,-3.20721 -1.21761,1.21761 -1.69623,2.41072 -1.69523,4.22596 7e-4,1.28127 0.0758,1.66529 0.51007,2.60701 1.27135,2.75712 4.34596,4.08891 7.35567,3.18616 z"
     id="path4223"
     inkscape:connector-curvature="0" />
  <path
     style="opacity:0;fill:#cccccc;fill-opacity:0.8"
     d="m 145.44238,384.52354 c -3.89587,-0.84609 -7.23407,-4.08083 -8.24753,-7.99191 -0.35163,-1.35698 -0.35685,-3.90243 -0.0108,-5.26953 0.96327,-3.80556 4.14081,-6.98309 7.94637,-7.94637 1.36719,-0.34607 3.91258,-0.34083 5.26977,0.0109 5.06422,1.31227 8.51991,6.03529 8.20417,11.21293 -0.40198,6.59198 -6.71853,11.3834 -13.16198,9.98402 z m 4.2029,-4.89202 c 4.27281,-1.26158 5.56908,-7.05341 2.26941,-10.13987 -1.31464,-1.22969 -2.21838,-1.5755 -4.12557,-1.57864 -1.35489,-0.002 -1.73915,0.0668 -2.58941,0.46548 -1.98047,0.92851 -3.29026,2.82817 -3.46685,5.02816 -0.34757,4.32994 3.65783,7.48107 7.91242,6.22487 z"
     id="path4232"
     inkscape:connector-curvature="0" />
  <path
     style="opacity:0;fill:#cccccc;fill-opacity:0.8"
     d="m 145.44238,384.52354 c -3.89587,-0.84609 -7.23407,-4.08083 -8.24753,-7.99191 -0.35163,-1.35698 -0.35685,-3.90243 -0.0108,-5.26953 0.96327,-3.80556 4.14081,-6.98309 7.94637,-7.94637 1.36719,-0.34607 3.91258,-0.34083 5.26977,0.0109 5.06422,1.31227 8.51991,6.03529 8.20417,11.21293 -0.40198,6.59198 -6.71853,11.3834 -13.16198,9.98402 z m 4.2029,-4.89202 c 4.27281,-1.26158 5.56908,-7.05341 2.26941,-10.13987 -1.31464,-1.22969 -2.21838,-1.5755 -4.12557,-1.57864 -1.35489,-0.002 -1.73915,0.0668 -2.58941,0.46548 -1.98047,0.92851 -3.29026,2.82817 -3.46685,5.02816 -0.34757,4.32994 3.65783,7.48107 7.91242,6.22487 z"
     id="path4234"
     inkscape:connector-curvature="0" />
  <path
     style="opacity:0;fill:#cccccc;fill-opacity:0.8"
     d="m 145.44238,384.52354 c -3.89587,-0.84609 -7.23407,-4.08083 -8.24753,-7.99191 -0.35163,-1.35698 -0.35685,-3.90243 -0.0108,-5.26953 0.96327,-3.80556 4.14081,-6.98309 7.94637,-7.94637 1.36719,-0.34607 3.91258,-0.34083 5.26977,0.0109 5.06422,1.31227 8.51991,6.03529 8.20417,11.21293 -0.40198,6.59198 -6.71853,11.3834 -13.16198,9.98402 z m 4.2029,-4.89202 c 4.27281,-1.26158 5.56908,-7.05341 2.26941,-10.13987 -1.31464,-1.22969 -2.21838,-1.5755 -4.12557,-1.57864 -1.35489,-0.002 -1.73915,0.0668 -2.58941,0.46548 -1.98047,0.92851 -3.29026,2.82817 -3.46685,5.02816 -0.34757,4.32994 3.65783,7.48107 7.91242,6.22487 z"
     id="path4236"
     inkscape:connector-curvature="0" />
  <path
     style="opacity:0;fill:#cccccc;fill-opacity:0.8"
     d="m 145.44238,384.52354 c -3.89587,-0.84609 -7.23407,-4.08083 -8.24753,-7.99191 -0.35163,-1.35698 -0.35685,-3.90243 -0.0108,-5.26953 0.96327,-3.80556 4.14081,-6.98309 7.94637,-7.94637 1.36719,-0.34607 3.91258,-0.34083 5.26977,0.0109 5.06422,1.31227 8.51991,6.03529 8.20417,11.21293 -0.40198,6.59198 -6.71853,11.3834 -13.16198,9.98402 z m 4.2029,-4.89202 c 4.27281,-1.26158 5.56908,-7.05341 2.26941,-10.13987 -1.31464,-1.22969 -2.21838,-1.5755 -4.12557,-1.57864 -1.35489,-0.002 -1.73915,0.0668 -2.58941,0.46548 -1.98047,0.92851 -3.29026,2.82817 -3.46685,5.02816 -0.34757,4.32994 3.65783,7.48107 7.91242,6.22487 z"
     id="path4238"
     inkscape:connector-curvature="0" />
</svg>
